<svg width="75" height="77" viewBox="0 0 75 77" fill="none" xmlns="http://www.w3.org/2000/svg">
<path d="M37.4538 4.76709C30.6269 4.77498 24.0819 7.53974 19.2546 12.4548C14.4272 17.3699 11.7118 24.034 11.7041 30.985C11.7041 53.4191 35.1129 70.3713 36.1078 71.0864C36.5065 71.3567 36.9748 71.5009 37.4538 71.5009C37.9328 71.5009 38.4011 71.3567 38.7998 71.0864C39.7947 70.3713 63.2035 53.4191 63.2035 30.985C63.1957 24.034 60.4803 17.3699 55.653 12.4548C50.8257 7.53974 44.2807 4.77498 37.4538 4.76709ZM37.4538 21.4512C39.3057 21.4512 41.1161 22.0103 42.6559 23.0579C44.1957 24.1055 45.3959 25.5945 46.1046 27.3365C46.8133 29.0786 46.9987 30.9955 46.6374 32.8449C46.2761 34.6943 45.3843 36.393 44.0748 37.7263C42.7653 39.0597 41.0969 39.9677 39.2805 40.3355C37.4642 40.7034 35.5815 40.5146 33.8705 39.793C32.1596 39.0714 30.6972 37.8494 29.6683 36.2816C28.6394 34.7138 28.0903 32.8706 28.0903 30.985C28.0903 28.4564 29.0768 26.0315 30.8328 24.2436C32.5888 22.4556 34.9704 21.4512 37.4538 21.4512Z" fill="#292929"/>
<ellipse cx="37.4548" cy="31.0732" rx="22.195" ry="22.5986" fill="white"/>
<path fill-rule="evenodd" clip-rule="evenodd" d="M48.4637 27.7725L37.4538 18.1641L23.9666 29.9348C23.6833 30.1821 23.654 30.6122 23.9013 30.8956C24.1486 31.179 24.5788 31.2082 24.8622 30.9609L25.6759 30.2507V40.4169C25.6759 42.3416 27.2114 43.9227 29.1313 43.9227H45.7776C47.6975 43.9227 49.2329 42.3416 49.2329 40.4169V30.2516L50.0456 30.9609C50.329 31.2082 50.7592 31.179 51.0065 30.8956C51.2538 30.6123 51.2246 30.1821 50.9412 29.9348L48.4637 27.7725ZM47.873 29.0648L37.4539 19.9718L27.0358 29.0639C27.0372 29.0816 27.0379 29.0996 27.0379 29.1177V40.4169C27.0379 41.6126 27.9866 42.5608 29.1313 42.5608H33.9787V35.6534C33.9787 34.5089 34.8931 33.56 36.0469 33.56H38.8609C40.0147 33.56 40.9291 34.5088 40.9291 35.6534V42.5608H45.7776C46.9222 42.5608 47.8709 41.6126 47.8709 40.4169V29.1177C47.8709 29.0999 47.8716 29.0822 47.873 29.0648ZM39.5671 42.5608H35.3407V35.6534C35.3407 35.2378 35.6684 34.922 36.0469 34.922H38.8609C39.2395 34.922 39.5671 35.2378 39.5671 35.6534V42.5608Z" fill="#292929"/>
</svg>
