<svg width="60" height="61" viewBox="0 0 60 61" fill="none" xmlns="http://www.w3.org/2000/svg">
<path d="M29.8085 3.78711C24.4082 3.79335 19.2308 5.98039 15.4122 9.86843C11.5936 13.7565 9.44558 19.028 9.43945 24.5265C9.43945 42.2729 27.9568 55.6828 28.7438 56.2484C29.0592 56.4622 29.4296 56.5763 29.8085 56.5763C30.1874 56.5763 30.5579 56.4622 30.8733 56.2484C31.6603 55.6828 50.1776 42.2729 50.1776 24.5265C50.1715 19.028 48.0235 13.7565 44.2049 9.86843C40.3862 5.98039 35.2089 3.79335 29.8085 3.78711ZM29.8085 16.9849C31.2735 16.9849 32.7055 17.4272 33.9236 18.2559C35.1417 19.0846 36.091 20.2624 36.6516 21.6405C37.2122 23.0185 37.3589 24.5349 37.0731 25.9978C36.7873 27.4607 36.0819 28.8045 35.046 29.8592C34.0101 30.914 32.6903 31.6322 31.2535 31.9232C29.8167 32.2142 28.3274 32.0649 26.974 31.4941C25.6206 30.9233 24.4638 29.9566 23.6499 28.7164C22.836 27.4762 22.4016 26.0181 22.4016 24.5265C22.4016 22.5264 23.182 20.6081 24.571 19.1938C25.9601 17.7795 27.8441 16.9849 29.8085 16.9849Z" fill="#292929"/>
<ellipse cx="29.8091" cy="24.5961" rx="17.5572" ry="17.8764" fill="white"/>
<path fill-rule="evenodd" clip-rule="evenodd" d="M38.5177 21.985L29.8085 14.3843L19.1396 23.6954C18.9154 23.891 18.8923 24.2313 19.0879 24.4555C19.2835 24.6796 19.6238 24.7027 19.848 24.5071L20.4913 23.9456V31.9874C20.4913 33.5098 21.706 34.7606 23.2247 34.7606H36.3926C37.9113 34.7606 39.1259 33.5098 39.1259 31.9874V23.9457L39.7692 24.5071C39.9933 24.7027 40.3336 24.6796 40.5292 24.4555C40.7248 24.2313 40.7017 23.891 40.4776 23.6954L38.5177 21.985ZM38.0502 23.0069L29.8085 15.8142L21.5671 23.0068C21.5682 23.0208 21.5687 23.0349 21.5687 23.0492V31.9874C21.5687 32.9332 22.3192 33.6832 23.2247 33.6832H27.0597V28.2192C27.0597 27.3138 27.783 26.5632 28.6957 26.5632H30.9218C31.8344 26.5632 32.5578 27.3138 32.5578 28.2192V33.6832H36.3926C37.298 33.6832 38.0485 32.9332 38.0485 31.9874V23.0492C38.0485 23.0349 38.0491 23.0208 38.0502 23.0069ZM31.4804 33.6832H28.1371V28.2192C28.1371 27.8904 28.3963 27.6406 28.6957 27.6406H30.9218C31.2212 27.6406 31.4804 27.8904 31.4804 28.2192V33.6832Z" fill="#292929"/>
</svg>
