<svg width="79" height="79" viewBox="0 0 79 79" fill="none" xmlns="http://www.w3.org/2000/svg">
<g clip-path="url(#clip0_1_5264)">
<path d="M39.2535 5.11237C32.1294 5.12048 25.2994 7.96447 20.2618 13.0204C15.2243 18.0763 12.3907 24.9313 12.3826 32.0815C12.3826 55.1585 36.8107 72.5965 37.8489 73.332C38.265 73.6101 38.7537 73.7584 39.2535 73.7584C39.7534 73.7584 40.2421 73.6101 40.6581 73.332C41.6963 72.5965 66.1244 55.1585 66.1244 32.0815C66.1163 24.9313 63.2827 18.0763 58.2452 13.0204C53.2077 7.96447 46.3776 5.12048 39.2535 5.11237ZM39.2535 22.2746C41.1861 22.2746 43.0752 22.8497 44.6821 23.9273C46.289 25.0049 47.5414 26.5366 48.281 28.3285C49.0205 30.1205 49.214 32.0924 48.837 33.9948C48.46 35.8971 47.5293 37.6446 46.1628 39.0161C44.7963 40.3876 43.0552 41.3216 41.1598 41.7C39.2643 42.0784 37.2997 41.8842 35.5142 41.142C33.7288 40.3997 32.2027 39.1427 31.129 37.53C30.0553 35.9172 29.4823 34.0211 29.4823 32.0815C29.4823 29.4805 30.5117 26.9861 32.3442 25.1469C34.1767 23.3078 36.662 22.2746 39.2535 22.2746Z" fill="#292929"/>
<ellipse cx="39.2535" cy="32.1723" rx="23.1615" ry="23.2461" fill="white"/>
<path d="M51.0152 24.4343C51.0152 24.2778 50.9532 24.1276 50.8429 24.017C50.7326 23.9063 50.5831 23.8441 50.4271 23.8441L40.9119 23.8441C40.9804 23.6548 41.0162 23.4552 41.0178 23.2538L41.0178 22.0734C41.0178 21.6038 40.8319 21.1534 40.501 20.8213C40.1702 20.4892 39.7214 20.3027 39.2535 20.3027C38.7856 20.3027 38.3369 20.4892 38.006 20.8213C37.6751 21.1534 37.4893 21.6038 37.4893 22.0734L37.4893 23.2538C37.4908 23.4552 37.5266 23.6548 37.5951 23.8441L28.0799 23.8441C27.9239 23.8441 27.7744 23.9063 27.6641 24.017C27.5538 24.1276 27.4918 24.2778 27.4918 24.4343C27.4717 26.7269 28.0819 28.9807 29.2554 30.9478C30.4288 32.9148 32.12 34.519 34.1431 35.5838L35.4192 46.4677C35.4352 46.6128 35.5041 46.7467 35.6127 46.8437C35.7213 46.9407 35.8619 46.9939 36.0073 46.9931L42.4762 46.9931C42.6263 46.9933 42.7707 46.936 42.88 46.8329C42.9894 46.7297 43.0553 46.5886 43.0643 46.4382L43.7876 35.873C45.9659 34.8727 47.8082 33.2595 49.0911 31.2291C50.374 29.1987 51.0423 26.8384 51.0152 24.4343ZM38.6654 23.2538L38.6654 22.0734C38.6654 21.9168 38.7274 21.7667 38.8377 21.656C38.948 21.5453 39.0975 21.4831 39.2535 21.4831C39.4095 21.4831 39.5591 21.5453 39.6693 21.656C39.7796 21.7667 39.8416 21.9168 39.8416 22.0734L39.8416 23.2538C39.8416 23.4104 39.7796 23.5605 39.6693 23.6712C39.5591 23.7819 39.4095 23.8441 39.2535 23.8441C39.0975 23.8441 38.948 23.7819 38.8377 23.6712C38.7274 23.5605 38.6654 23.4104 38.6654 23.2538ZM42.5703 36.3688L41.9234 45.8126L36.5248 45.8126L35.4016 36.2154C36.6047 36.6033 37.8604 36.8024 39.1241 36.8056L39.2535 36.8056L39.4711 36.8056C39.7416 36.8056 40.0121 36.8056 40.2885 36.7643L40.5355 36.7643C41.2238 36.6909 41.9045 36.5586 42.5703 36.3688ZM40.5532 35.5543L40.1121 35.6074L39.6475 35.6074L39.0594 35.6074L38.442 35.572L38.1361 35.572C33.0022 34.9818 28.9503 30.5314 28.6739 25.0127L49.839 25.0127C49.5567 30.4783 45.5989 34.8992 40.5532 35.5543ZM35.725 28.0406L31.6084 28.0406C31.4524 28.0406 31.3029 27.9785 31.1926 27.8678C31.0823 27.7571 31.0203 27.6069 31.0203 27.4504C31.0203 27.2939 31.0823 27.1437 31.1926 27.033C31.3029 26.9224 31.4524 26.8602 31.6084 26.8602L35.725 26.8602C35.881 26.8602 36.0306 26.9224 36.1408 27.033C36.2511 27.1437 36.3131 27.2939 36.3131 27.4504C36.3131 27.6069 36.2511 27.7571 36.1408 27.8678C36.0306 27.9785 35.881 28.0406 35.725 28.0406ZM38.6654 28.0406L38.0773 28.0406C37.9214 28.0406 37.7718 27.9785 37.6615 27.8678C37.5512 27.7571 37.4893 27.6069 37.4893 27.4504C37.4893 27.2939 37.5512 27.1437 37.6615 27.033C37.7718 26.9224 37.9214 26.8602 38.0773 26.8602L38.6654 26.8602C38.8214 26.8602 38.971 26.9224 39.0813 27.033C39.1915 27.1437 39.2535 27.2939 39.2535 27.4504C39.2535 27.6069 39.1915 27.7571 39.0813 27.8678C38.971 27.9785 38.8214 28.0406 38.6654 28.0406Z" fill="#292929"/>
</g>
<defs>
<clipPath id="clip0_1_5264">
<rect width="78.7693" height="77.8749" fill="white" transform="translate(0.168549 0.208862) scale(0.99239 1.00746)"/>
</clipPath>
</defs>
</svg>
